<svg version="1.1" id="Layer_1" xmlns="http://www.w3.org/2000/svg" xmlns:xlink="http://www.w3.org/1999/xlink" x="0px" y="0px"
	 width="100%" viewBox="0 0 512 512" enable-background="new 0 0 512 512" xml:space="preserve">
<path fill="#FF0101" opacity="1.000000" stroke="none" 
	d="
M339.000000,513.000000 
	C226.027451,513.000000 113.554893,513.000000 1.041169,513.000000 
	C1.041169,342.402435 1.041169,171.804840 1.041169,1.103623 
	C171.555893,1.103623 342.111877,1.103623 512.833923,1.103623 
	C512.833923,171.666534 512.833923,342.333252 512.833923,513.000000 
	C455.138153,513.000000 397.319061,513.000000 339.000000,513.000000 
M415.630188,276.133270 
	C371.331177,317.825684 297.989441,300.953979 276.042999,244.116684 
	C263.960144,212.824417 271.456940,174.707108 298.951416,153.214844 
	C310.190491,144.429337 322.549866,138.241165 336.656433,136.007477 
	C341.298920,135.272369 343.830078,133.130081 345.728882,128.906616 
	C351.793854,115.416466 358.253815,102.104019 364.545624,88.715614 
	C367.122192,83.232826 369.658783,77.731232 372.251740,72.156113 
	C326.598083,59.833679 247.765594,97.615021 228.880753,140.431351 
	C273.120087,175.660675 273.763214,243.957916 223.928635,278.536255 
	C223.989243,278.857635 223.973557,279.220062 224.121231,279.494598 
	C247.730682,323.385315 286.071899,348.710571 333.452850,356.577362 
	C404.846863,368.431152 471.635956,324.988281 494.292572,256.491150 
	C495.035278,254.245758 495.526672,251.917221 496.241791,249.226318 
	C475.349792,250.195938 455.230865,251.071701 435.125580,252.191742 
	C433.766785,252.267441 432.240631,253.979080 431.251953,255.279388 
	C426.135742,262.008575 421.169189,268.851532 415.630188,276.133270 
M92.499840,128.599472 
	C74.435349,128.599472 56.370861,128.599472 37.721306,128.599472 
	C38.387604,129.823486 38.546307,130.264130 38.825516,130.606522 
	C51.773224,146.483932 64.658386,162.413849 77.801231,178.128235 
	C79.118187,179.702850 82.000893,180.705658 84.165627,180.720673 
	C108.829315,180.891937 133.494919,180.762070 158.159409,180.862976 
	C162.802887,180.881973 167.488235,181.275452 172.077057,181.991089 
	C184.436234,183.918564 193.794693,193.893433 194.776810,205.822098 
	C195.705750,217.104858 188.617737,227.824280 176.808838,231.686569 
	C172.008469,233.256592 166.691208,233.826111 161.604660,233.848801 
	C123.108086,234.020508 84.610405,233.943222 46.113075,233.943619 
	C44.464687,233.943634 42.816299,233.943619 40.088490,233.943619 
	C41.792603,235.457794 42.392399,236.032364 43.034359,236.555191 
	C89.789284,274.634155 136.530487,312.730042 183.372559,350.701477 
	C185.111511,352.111145 187.832413,352.950745 190.102676,352.965271 
	C214.599945,353.122253 239.098633,353.060089 263.596924,353.057861 
	C265.176331,353.057739 266.755737,353.057831 269.745117,353.057831 
	C241.254715,329.840179 213.887695,307.538025 186.454971,285.182343 
	C194.344116,281.960876 201.956528,279.525299 208.945389,275.890686 
	C258.822174,249.951904 267.018646,186.402069 225.216583,150.273666 
	C207.680725,135.117889 186.977798,128.566910 163.994980,128.589478 
	C140.496628,128.612549 116.998238,128.594360 92.499840,128.599472 
M379.666473,188.766663 
	C371.601440,183.443665 362.716614,181.377991 353.121552,181.952957 
	C328.737457,183.414139 310.901245,206.839050 316.793304,229.715759 
	C321.249512,247.017502 336.537079,258.955353 355.233612,259.733215 
	C372.708984,260.460297 389.070068,249.665970 394.975189,233.513412 
	C400.919250,217.254395 395.417114,200.640076 379.666473,188.766663 
M81.105492,306.284454 
	C66.922981,296.422638 45.790955,302.038940 39.930870,319.308594 
	C35.721550,331.713409 41.585125,344.778839 53.761074,350.504669 
	C66.234344,356.370300 81.100723,352.078583 88.425194,340.497559 
	C95.482056,329.339752 92.814743,316.008331 81.105492,306.284454 
M422.981232,162.501419 
	C412.391571,170.137268 401.801941,177.773117 390.946503,185.600601 
	C395.166718,190.387177 399.060425,194.803406 402.957520,199.223465 
	C423.822388,184.196320 444.120880,169.577072 464.673737,154.774643 
	C460.414764,149.983429 456.581604,145.671249 452.594482,141.185837 
	C442.688843,148.321472 433.130066,155.207245 422.981232,162.501419 
M364.570770,174.741516 
	C366.170380,174.741516 367.769989,174.741516 369.537384,174.741516 
	C372.378876,156.936066 375.160126,139.507935 378.052673,121.382660 
	C370.974396,121.382660 364.603851,121.382660 358.184265,121.382660 
	C355.430450,138.663834 352.696320,155.821609 349.905060,173.337921 
	C354.805206,173.808609 359.244568,174.235031 364.570770,174.741516 
M462.775848,239.329651 
	C463.445099,234.929718 464.114349,230.529800 464.873322,225.540192 
	C445.434082,224.152649 426.329773,222.789017 407.047943,221.412720 
	C406.053528,227.457779 405.145996,232.974503 404.149963,239.029266 
	C422.887665,240.380539 441.240784,241.749313 459.607635,242.898407 
	C460.552002,242.957504 461.614166,241.134277 462.775848,239.329651 
M187.401947,395.086456 
	C183.387314,388.293365 180.591110,380.700470 175.463272,374.638092 
	C174.955460,374.862823 174.447662,375.087585 173.939850,375.312317 
	C173.939850,388.790863 173.939850,402.269379 173.939850,415.725220 
	C176.556885,415.725220 178.959152,415.725220 181.868256,415.725220 
	C181.868256,411.211060 181.868256,407.019409 181.868256,402.827728 
	C182.151550,402.774597 182.434830,402.721497 182.718124,402.668365 
	C184.942108,406.743652 187.166092,410.818939 189.690338,415.444427 
	C192.213867,410.700623 194.395279,406.599945 196.576691,402.499298 
	C196.952881,402.630280 197.329056,402.761261 197.705231,402.892242 
	C197.705231,407.161926 197.705231,411.431610 197.705231,415.846130 
	C200.564667,415.846130 202.980026,415.846130 205.812759,415.846130 
	C205.812759,402.967163 205.837738,390.359528 205.750549,377.752686 
	C205.745346,376.997772 204.942459,375.745331 204.333527,375.625580 
	C203.579239,375.477234 202.437271,376.075470 201.831024,376.705536 
	C201.050507,377.516632 200.617172,378.669464 200.065689,379.692017 
	C196.702423,385.928223 193.348053,392.169189 189.766342,398.825592 
	C188.855682,397.387451 188.329590,396.556610 187.401947,395.086456 
M385.596313,403.752502 
	C386.139465,405.140961 386.535614,406.610870 387.251434,407.903717 
	C390.229797,413.282562 394.287598,417.232086 400.923462,417.157440 
	C407.314331,417.085541 411.474548,413.372986 414.156860,408.047791 
	C418.703552,399.021240 418.411743,389.961670 412.671661,381.574585 
	C406.450592,372.484650 395.269012,372.580994 388.905914,381.576782 
	C384.297455,388.092041 383.452271,395.344147 385.596313,403.752502 
M137.114761,393.806091 
	C136.713104,400.346710 138.107452,406.410187 142.303665,411.557343 
	C148.305511,418.919342 157.531677,419.162781 163.942856,412.265656 
	C171.930267,403.672852 171.727737,387.755798 163.524689,379.402679 
	C157.534180,373.302490 148.747238,372.999817 143.387421,379.661835 
	C140.412720,383.359192 139.187836,388.464325 137.114761,393.806091 
M424.495300,416.078491 
	C425.907043,415.979645 427.318756,415.880768 429.138123,415.753387 
	C429.138123,409.595306 429.138123,403.889740 429.138123,396.878662 
	C434.918121,404.431854 439.900238,410.942352 444.882355,417.452881 
	C445.402039,417.147217 445.921722,416.841553 446.441406,416.535919 
	C446.441406,403.201813 446.441406,389.867706 446.441406,376.278564 
	C444.005463,376.278564 441.630157,376.278564 438.828674,376.278564 
	C438.828674,382.281128 438.828674,387.992035 438.828674,394.578705 
	C432.183075,388.180634 428.730499,380.052490 420.912323,374.018280 
	C420.912323,388.314178 420.861572,400.934998 421.025665,413.552979 
	C421.036682,414.401825 422.670898,415.229584 424.495300,416.078491 
M261.608307,375.962738 
	C259.096313,375.641571 258.003235,376.550110 258.104523,379.268433 
	C258.286163,384.141998 258.155731,389.027191 258.155731,395.011871 
	C251.755356,388.017914 247.723267,380.649170 241.858154,374.969757 
	C241.405167,375.277985 240.952164,375.586243 240.499176,375.894501 
	C240.499176,389.105927 240.499176,402.317383 240.499176,415.754395 
	C243.011154,415.754395 245.375122,415.754395 248.330765,415.754395 
	C248.330765,409.613678 248.330765,403.786255 248.330765,396.982422 
	C254.118454,404.389801 259.182770,410.871368 264.247070,417.352936 
	C264.827728,417.045563 265.408417,416.738190 265.989075,416.430786 
	C265.989075,403.663757 266.046814,390.895813 265.841187,378.132080 
	C265.829254,377.391296 263.681000,376.684906 261.608307,375.962738 
M210.442093,379.865845 
	C210.578644,388.344116 210.240891,396.864532 210.988983,405.288513 
	C211.695816,413.248016 217.465561,417.815399 224.322662,417.094574 
	C229.568207,416.543152 234.360641,411.668823 234.765717,404.787476 
	C235.320450,395.363861 234.904343,385.883087 234.904343,376.225769 
	C232.456818,376.225769 230.034836,376.225769 227.346329,376.225769 
	C227.258469,377.736969 227.122650,379.028778 227.118393,380.321014 
	C227.095413,387.310089 227.416351,394.322083 226.907440,401.274078 
	C226.760986,403.274719 224.446411,406.485626 222.789871,406.714996 
	C219.577850,407.159821 218.742981,404.048920 218.728729,401.151520 
	C218.721375,399.653870 218.729828,398.156189 218.729889,396.658508 
	C218.730164,389.880737 218.729996,383.102966 218.729996,375.607788 
	C215.604080,377.301239 211.272659,372.952393 210.442093,379.865845 
M104.953621,406.326782 
	C101.504150,406.170563 98.054680,406.014374 94.188919,405.839325 
	C94.363777,403.853180 94.511459,402.175751 94.663574,400.447968 
	C98.012253,400.288727 100.770874,400.157532 103.533653,400.026123 
	C103.533653,397.069672 103.533653,394.507233 103.533653,391.772308 
	C100.324013,391.597931 97.413841,391.439819 94.445404,391.278564 
	C94.445404,389.307098 94.445404,387.874695 94.445404,385.861694 
	C98.175957,385.861694 101.737900,385.861694 105.451782,385.861694 
	C105.451782,382.246307 105.451782,379.218079 105.451782,376.268066 
	C99.000107,376.268066 92.932716,376.268066 86.706749,376.268066 
	C86.706749,389.628204 86.706749,402.682007 86.706749,415.770935 
	C93.190750,415.770935 99.393654,415.770935 105.559464,415.770935 
	C105.559464,412.600983 105.559464,409.805328 104.953621,406.326782 
M322.785706,383.120270 
	C319.093353,393.913727 315.401031,404.707214 311.524384,416.039429 
	C315.448944,415.359375 319.172302,418.253967 321.832275,412.834167 
	C322.599426,411.271088 331.598877,411.110016 332.562225,412.773804 
	C335.507050,417.859741 338.949829,415.668060 342.847198,415.771210 
	C338.984100,404.325745 335.384491,393.306274 331.491913,382.391327 
	C330.581238,379.837769 328.677734,377.638306 327.230988,375.275940 
	C325.816040,377.638550 324.401093,380.001129 322.785706,383.120270 
M50.876919,400.210815 
	C52.964573,400.210815 55.052231,400.210815 56.975800,400.210815 
	C56.975800,396.976349 56.975800,394.423584 56.975800,391.752106 
	C53.846989,391.611176 51.094090,391.487152 48.013542,391.348389 
	C48.129166,389.304871 48.217293,387.747375 48.330952,385.738556 
	C52.100887,385.738556 55.513474,385.738556 59.120522,385.738556 
	C59.120522,382.336761 59.120522,379.409119 59.120522,376.389221 
	C52.738968,376.389221 46.557701,376.389221 40.498093,376.389221 
	C40.498093,389.833954 40.498093,402.866333 40.498093,415.808105 
	C46.992176,415.808105 53.068512,415.808105 59.542419,415.808105 
	C59.386963,412.430725 59.247238,409.395081 59.087029,405.914429 
	C55.148605,405.914429 51.730137,405.914429 46.990746,405.914429 
	C48.290009,403.421997 49.126183,401.817902 50.876919,400.210815 
M302.618927,375.471100 
	C298.241516,374.037872 294.402985,375.353546 290.932556,377.962646 
	C280.224365,386.013214 280.527313,406.707672 291.537933,414.331329 
	C293.379028,415.606079 295.992981,417.144348 297.847687,416.735718 
	C301.850281,415.853851 305.792145,414.098145 309.234070,411.884064 
	C309.779999,411.532898 307.607269,406.926483 306.642395,404.305450 
	C306.556274,404.071472 306.106567,403.971375 305.613220,403.686279 
	C302.145325,406.552612 298.384827,408.520508 294.345306,404.517548 
	C290.467987,400.675323 290.043274,393.352570 293.336823,388.830017 
	C296.301422,384.759277 299.155609,384.578583 306.427094,388.110565 
	C307.762360,385.716614 309.101288,383.316040 310.713226,380.425964 
	C308.054321,378.745514 305.708405,377.262878 302.618927,375.471100 
M359.894073,406.472870 
	C355.438202,407.649261 352.947113,405.076050 351.182526,401.621338 
	C348.894409,397.141602 349.869629,390.889893 353.043945,387.607513 
	C357.160156,383.351044 361.085754,385.705444 366.077087,389.138550 
	C366.790131,385.238190 368.662781,380.500885 367.610504,379.723694 
	C364.387207,377.343018 359.965179,375.103912 356.147064,375.313934 
	C347.819885,375.771942 341.894592,385.133331 341.896362,395.880157 
	C341.898132,406.620667 347.882446,415.614532 355.981049,416.853424 
	C360.778290,417.587311 365.509216,416.307739 367.777557,412.225006 
	C368.859589,410.277496 366.653717,406.503265 365.811432,403.039551 
	C363.353302,404.518127 361.974640,405.347382 359.894073,406.472870 
M109.326508,400.808533 
	C110.913437,407.998383 114.189095,413.907440 121.612564,416.471100 
	C126.023849,417.994476 133.657043,416.173157 134.883560,412.359009 
	C135.693344,409.840729 133.593491,406.386841 132.686142,402.932129 
	C126.060562,407.561066 123.360565,407.722137 120.125854,404.414703 
	C116.303177,400.506012 116.025528,392.747406 119.548126,388.270569 
	C122.570114,384.429901 125.468575,384.373444 131.716431,388.033447 
	C137.842896,380.720612 137.367157,379.828003 129.441162,375.918945 
	C123.788879,373.131317 116.729683,376.082428 112.829010,382.253967 
	C109.401108,387.677429 108.520264,393.666565 109.326508,400.808533 
M470.948761,406.811890 
	C467.405365,406.443329 463.861938,406.074768 459.955597,405.668457 
	C460.040009,403.886566 460.120178,402.194489 460.222168,400.042114 
	C463.465210,400.042114 466.192108,400.042114 468.793915,400.042114 
	C468.793915,396.964111 468.793915,394.389893 468.793915,391.368530 
	C465.696594,391.368530 462.943787,391.368530 460.180298,391.368530 
	C460.180298,389.330048 460.180298,387.756927 460.180298,385.769348 
	C463.868866,385.769348 467.286591,385.769348 470.815308,385.769348 
	C470.815308,382.296570 470.815308,379.259796 470.815308,376.308746 
	C464.406342,376.308746 458.345062,376.308746 452.268158,376.308746 
	C452.268158,389.689087 452.268158,402.733643 452.268158,415.866241 
	C458.638458,415.866241 464.705414,415.866241 471.165192,415.866241 
	C471.165192,412.988770 471.165192,410.362030 470.948761,406.811890 
M484.078186,375.476959 
	C479.179749,376.681946 476.410034,379.734802 475.708496,384.781708 
	C474.960632,390.161926 476.218536,394.669800 480.858612,397.883484 
	C482.768585,399.206329 484.852966,400.329071 486.557312,401.874481 
	C487.371002,402.612305 488.156281,404.746918 487.774994,405.159790 
	C486.917694,406.088165 485.158417,406.993713 484.066376,406.718353 
	C482.091949,406.220551 480.337006,404.852356 478.484528,403.858826 
	C473.155090,410.091949 474.672180,414.662476 482.691254,416.532349 
	C487.557495,417.667084 492.864288,414.938049 494.957123,410.224731 
	C497.782013,403.862610 495.949554,397.041138 490.251801,392.986298 
	C488.632263,391.833740 486.688110,391.071320 485.264679,389.734161 
	C484.420776,388.941345 484.303680,387.374817 483.859772,386.156158 
	C485.200439,385.916565 486.579407,385.373199 487.869446,385.535675 
	C488.861359,385.660553 489.741394,386.673859 491.371246,387.757568 
	C492.540405,385.249207 495.035950,382.169312 494.325531,380.935791 
	C492.937164,378.525055 489.806610,377.072449 487.283386,375.394531 
	C486.704865,375.009796 485.664795,375.319153 484.078186,375.476959 
M14.606380,380.494232 
	C14.700398,382.239258 14.794415,383.984253 14.884618,385.658447 
	C17.376360,385.869049 19.313509,386.032745 21.686779,386.233307 
	C21.686779,396.230103 21.686779,405.966492 21.686779,415.772003 
	C24.566612,415.772003 26.978403,415.772003 30.005985,415.772003 
	C30.005985,405.663269 30.005985,395.818512 30.005985,386.085724 
	C32.558384,385.888397 34.486378,385.739349 36.573311,385.578033 
	C36.573311,382.271759 36.573311,379.356415 36.573311,375.976929 
	C29.771904,375.976929 23.175879,375.864746 16.595724,376.136749 
	C15.875111,376.166534 15.245772,378.404633 14.606380,380.494232 
M71.844810,377.889740 
	C69.416336,377.018402 66.987862,376.147034 64.081741,375.104309 
	C64.081741,389.539429 64.081741,402.602509 64.081741,415.725861 
	C70.590927,415.725861 76.812271,415.725861 82.945663,415.725861 
	C82.945663,412.428467 82.945663,409.479309 82.945663,405.908325 
	C79.182068,405.908325 75.642662,405.908325 71.859322,405.908325 
	C71.859322,396.463989 71.859322,387.644592 71.844810,377.889740 
M376.469513,416.128754 
	C379.313873,416.539734 380.694641,415.765594 380.574738,412.438171 
	C380.323181,405.457245 380.497223,398.460968 380.496826,391.471008 
	C380.496582,386.386292 380.496796,381.301575 380.496796,376.154297 
	C377.471649,376.154297 375.181610,376.154297 372.311127,376.154297 
	C372.311127,388.938904 372.260773,401.542114 372.449860,414.141724 
	C372.460052,414.819336 374.481476,415.466766 376.469513,416.128754 
M278.938416,376.832764 
	C276.463745,376.469299 273.989075,376.105835 271.239349,375.701996 
	C271.239349,389.537903 271.239349,402.584625 271.239349,415.820923 
	C273.870880,415.820923 276.262177,415.820923 279.067535,415.820923 
	C279.067535,402.973969 279.067535,390.376312 278.938416,376.832764 
z"/>
<path fill="#FFFDFD" opacity="1.000000" stroke="none" 
	d="
M415.890320,275.894043 
	C421.169189,268.851532 426.135742,262.008575 431.251953,255.279388 
	C432.240631,253.979080 433.766785,252.267441 435.125580,252.191742 
	C455.230865,251.071701 475.349792,250.195938 496.241791,249.226318 
	C495.526672,251.917221 495.035278,254.245758 494.292572,256.491150 
	C471.635956,324.988281 404.846863,368.431152 333.452850,356.577362 
	C286.071899,348.710571 247.730682,323.385315 224.121231,279.494598 
	C223.973557,279.220062 223.989243,278.857635 223.931458,278.535706 
	C273.763214,243.957916 273.120087,175.660675 228.880753,140.431351 
	C247.765594,97.615021 326.598083,59.833679 372.251740,72.156113 
	C369.658783,77.731232 367.122192,83.232826 364.545624,88.715614 
	C358.253815,102.104019 351.793854,115.416466 345.728882,128.906616 
	C343.830078,133.130081 341.298920,135.272369 336.656433,136.007477 
	C322.549866,138.241165 310.190491,144.429337 298.951416,153.214844 
	C271.456940,174.707108 263.960144,212.824417 276.042999,244.116684 
	C297.989441,300.953979 371.331177,317.825684 415.890320,275.894043 
z"/>
<path fill="#FFFEFE" opacity="1.000000" stroke="none" 
	d="
M92.999855,128.596863 
	C116.998238,128.594360 140.496628,128.612549 163.994980,128.589478 
	C186.977798,128.566910 207.680725,135.117889 225.216583,150.273666 
	C267.018646,186.402069 258.822174,249.951904 208.945389,275.890686 
	C201.956528,279.525299 194.344116,281.960876 186.454971,285.182343 
	C213.887695,307.538025 241.254715,329.840179 269.745117,353.057831 
	C266.755737,353.057831 265.176331,353.057739 263.596924,353.057861 
	C239.098633,353.060089 214.599945,353.122253 190.102676,352.965271 
	C187.832413,352.950745 185.111511,352.111145 183.372559,350.701477 
	C136.530487,312.730042 89.789284,274.634155 43.034359,236.555191 
	C42.392399,236.032364 41.792603,235.457794 40.088490,233.943619 
	C42.816299,233.943619 44.464687,233.943634 46.113075,233.943619 
	C84.610405,233.943222 123.108086,234.020508 161.604660,233.848801 
	C166.691208,233.826111 172.008469,233.256592 176.808838,231.686569 
	C188.617737,227.824280 195.705750,217.104858 194.776810,205.822098 
	C193.794693,193.893433 184.436234,183.918564 172.077057,181.991089 
	C167.488235,181.275452 162.802887,180.881973 158.159409,180.862976 
	C133.494919,180.762070 108.829315,180.891937 84.165627,180.720673 
	C82.000893,180.705658 79.118187,179.702850 77.801231,178.128235 
	C64.658386,162.413849 51.773224,146.483932 38.825516,130.606522 
	C38.546307,130.264130 38.387604,129.823486 37.721306,128.599472 
	C56.370861,128.599472 74.435349,128.599472 92.999855,128.596863 
z"/>
<path fill="#FFFDFD" opacity="1.000000" stroke="none" 
	d="
M379.974060,188.955536 
	C395.417114,200.640076 400.919250,217.254395 394.975189,233.513412 
	C389.070068,249.665970 372.708984,260.460297 355.233612,259.733215 
	C336.537079,258.955353 321.249512,247.017502 316.793304,229.715759 
	C310.901245,206.839050 328.737457,183.414139 353.121552,181.952957 
	C362.716614,181.377991 371.601440,183.443665 379.974060,188.955536 
z"/>
<path fill="#FFFDFD" opacity="1.000000" stroke="none" 
	d="
M81.388580,306.513611 
	C92.814743,316.008331 95.482056,329.339752 88.425194,340.497559 
	C81.100723,352.078583 66.234344,356.370300 53.761074,350.504669 
	C41.585125,344.778839 35.721550,331.713409 39.930870,319.308594 
	C45.790955,302.038940 66.922981,296.422638 81.388580,306.513611 
z"/>
<path fill="#FFFAFA" opacity="1.000000" stroke="none" 
	d="
M423.276245,162.297211 
	C433.130066,155.207245 442.688843,148.321472 452.594482,141.185837 
	C456.581604,145.671249 460.414764,149.983429 464.673737,154.774643 
	C444.120880,169.577072 423.822388,184.196320 402.957520,199.223465 
	C399.060425,194.803406 395.166718,190.387177 390.946503,185.600601 
	C401.801941,177.773117 412.391571,170.137268 423.276245,162.297211 
z"/>
<path fill="#FFFAFA" opacity="1.000000" stroke="none" 
	d="
M364.127319,174.701477 
	C359.244568,174.235031 354.805206,173.808609 349.905060,173.337921 
	C352.696320,155.821609 355.430450,138.663834 358.184265,121.382660 
	C364.603851,121.382660 370.974396,121.382660 378.052673,121.382660 
	C375.160126,139.507935 372.378876,156.936066 369.537384,174.741516 
	C367.769989,174.741516 366.170380,174.741516 364.127319,174.701477 
z"/>
<path fill="#FFFAFA" opacity="1.000000" stroke="none" 
	d="
M462.698669,239.758530 
	C461.614166,241.134277 460.552002,242.957504 459.607635,242.898407 
	C441.240784,241.749313 422.887665,240.380539 404.149963,239.029266 
	C405.145996,232.974503 406.053528,227.457779 407.047943,221.412720 
	C426.329773,222.789017 445.434082,224.152649 464.873322,225.540192 
	C464.114349,230.529800 463.445099,234.929718 462.698669,239.758530 
z"/>
<path fill="#FFF5F5" opacity="1.000000" stroke="none" 
	d="
M187.602722,395.406128 
	C188.329590,396.556610 188.855682,397.387451 189.766342,398.825592 
	C193.348053,392.169189 196.702423,385.928223 200.065689,379.692017 
	C200.617172,378.669464 201.050507,377.516632 201.831024,376.705536 
	C202.437271,376.075470 203.579239,375.477234 204.333527,375.625580 
	C204.942459,375.745331 205.745346,376.997772 205.750549,377.752686 
	C205.837738,390.359528 205.812759,402.967163 205.812759,415.846130 
	C202.980026,415.846130 200.564667,415.846130 197.705231,415.846130 
	C197.705231,411.431610 197.705231,407.161926 197.705231,402.892242 
	C197.329056,402.761261 196.952881,402.630280 196.576691,402.499298 
	C194.395279,406.599945 192.213867,410.700623 189.690338,415.444427 
	C187.166092,410.818939 184.942108,406.743652 182.718124,402.668365 
	C182.434830,402.721497 182.151550,402.774597 181.868256,402.827728 
	C181.868256,407.019409 181.868256,411.211060 181.868256,415.725220 
	C178.959152,415.725220 176.556885,415.725220 173.939850,415.725220 
	C173.939850,402.269379 173.939850,388.790863 173.939850,375.312317 
	C174.447662,375.087585 174.955460,374.862823 175.463272,374.638092 
	C180.591110,380.700470 183.387314,388.293365 187.602722,395.406128 
z"/>
<path fill="#FFF8F8" opacity="1.000000" stroke="none" 
	d="
M385.454834,403.375244 
	C383.452271,395.344147 384.297455,388.092041 388.905914,381.576782 
	C395.269012,372.580994 406.450592,372.484650 412.671661,381.574585 
	C418.411743,389.961670 418.703552,399.021240 414.156860,408.047791 
	C411.474548,413.372986 407.314331,417.085541 400.923462,417.157440 
	C394.287598,417.232086 390.229797,413.282562 387.251434,407.903717 
	C386.535614,406.610870 386.139465,405.140961 385.454834,403.375244 
M395.302765,387.838837 
	C394.563873,389.121429 393.600952,390.326569 393.126038,391.700439 
	C391.347321,396.845734 392.824707,403.548340 396.932434,405.469147 
	C399.158386,406.509979 402.842621,406.357819 405.013763,405.174530 
	C409.071167,402.963226 410.058929,396.381989 408.303864,391.239807 
	C406.647156,386.385986 400.475403,382.397949 395.302765,387.838837 
z"/>
<path fill="#FFF8F7" opacity="1.000000" stroke="none" 
	d="
M137.144516,393.370544 
	C139.187836,388.464325 140.412720,383.359192 143.387421,379.661835 
	C148.747238,372.999817 157.534180,373.302490 163.524689,379.402679 
	C171.727737,387.755798 171.930267,403.672852 163.942856,412.265656 
	C157.531677,419.162781 148.305511,418.919342 142.303665,411.557343 
	C138.107452,406.410187 136.713104,400.346710 137.144516,393.370544 
M151.207657,406.636292 
	C155.465622,407.809418 158.218948,405.803497 160.190338,402.299469 
	C162.668854,397.894043 162.235199,391.983429 159.235001,388.247864 
	C155.803024,383.974701 150.828156,384.034058 147.482956,388.388153 
	C143.256226,393.889679 144.589493,401.734283 151.207657,406.636292 
z"/>
<path fill="#FFF8F8" opacity="1.000000" stroke="none" 
	d="
M424.022736,416.072815 
	C422.670898,415.229584 421.036682,414.401825 421.025665,413.552979 
	C420.861572,400.934998 420.912323,388.314178 420.912323,374.018280 
	C428.730499,380.052490 432.183075,388.180634 438.828674,394.578705 
	C438.828674,387.992035 438.828674,382.281128 438.828674,376.278564 
	C441.630157,376.278564 444.005463,376.278564 446.441406,376.278564 
	C446.441406,389.867706 446.441406,403.201813 446.441406,416.535919 
	C445.921722,416.841553 445.402039,417.147217 444.882355,417.452881 
	C439.900238,410.942352 434.918121,404.431854 429.138123,396.878662 
	C429.138123,403.889740 429.138123,409.595306 429.138123,415.753387 
	C427.318756,415.880768 425.907043,415.979645 424.022736,416.072815 
z"/>
<path fill="#FFF6F6" opacity="1.000000" stroke="none" 
	d="
M262.067627,375.962616 
	C263.681000,376.684906 265.829254,377.391296 265.841187,378.132080 
	C266.046814,390.895813 265.989075,403.663757 265.989075,416.430786 
	C265.408417,416.738190 264.827728,417.045563 264.247070,417.352936 
	C259.182770,410.871368 254.118454,404.389801 248.330765,396.982422 
	C248.330765,403.786255 248.330765,409.613678 248.330765,415.754395 
	C245.375122,415.754395 243.011154,415.754395 240.499176,415.754395 
	C240.499176,402.317383 240.499176,389.105927 240.499176,375.894501 
	C240.952164,375.586243 241.405167,375.277985 241.858154,374.969757 
	C247.723267,380.649170 251.755356,388.017914 258.155731,395.011871 
	C258.155731,389.027191 258.286163,384.141998 258.104523,379.268433 
	C258.003235,376.550110 259.096313,375.641571 262.067627,375.962616 
z"/>
<path fill="#FFF2F2" opacity="1.000000" stroke="none" 
	d="
M210.443268,379.406433 
	C211.272659,372.952393 215.604080,377.301239 218.729996,375.607788 
	C218.729996,383.102966 218.730164,389.880737 218.729889,396.658508 
	C218.729828,398.156189 218.721375,399.653870 218.728729,401.151520 
	C218.742981,404.048920 219.577850,407.159821 222.789871,406.714996 
	C224.446411,406.485626 226.760986,403.274719 226.907440,401.274078 
	C227.416351,394.322083 227.095413,387.310089 227.118393,380.321014 
	C227.122650,379.028778 227.258469,377.736969 227.346329,376.225769 
	C230.034836,376.225769 232.456818,376.225769 234.904343,376.225769 
	C234.904343,385.883087 235.320450,395.363861 234.765717,404.787476 
	C234.360641,411.668823 229.568207,416.543152 224.322662,417.094574 
	C217.465561,417.815399 211.695816,413.248016 210.988983,405.288513 
	C210.240891,396.864532 210.578644,388.344116 210.443268,379.406433 
z"/>
<path fill="#FFF2F2" opacity="1.000000" stroke="none" 
	d="
M105.256546,406.668213 
	C105.559464,409.805328 105.559464,412.600983 105.559464,415.770935 
	C99.393654,415.770935 93.190750,415.770935 86.706749,415.770935 
	C86.706749,402.682007 86.706749,389.628204 86.706749,376.268066 
	C92.932716,376.268066 99.000107,376.268066 105.451782,376.268066 
	C105.451782,379.218079 105.451782,382.246307 105.451782,385.861694 
	C101.737900,385.861694 98.175957,385.861694 94.445404,385.861694 
	C94.445404,387.874695 94.445404,389.307098 94.445404,391.278564 
	C97.413841,391.439819 100.324013,391.597931 103.533653,391.772308 
	C103.533653,394.507233 103.533653,397.069672 103.533653,400.026123 
	C100.770874,400.157532 98.012253,400.288727 94.663574,400.447968 
	C94.511459,402.175751 94.363777,403.853180 94.188919,405.839325 
	C98.054680,406.014374 101.504150,406.170563 105.256546,406.668213 
z"/>
<path fill="#FFF8F8" opacity="1.000000" stroke="none" 
	d="
M322.885925,382.742004 
	C324.401093,380.001129 325.816040,377.638550 327.230988,375.275940 
	C328.677734,377.638306 330.581238,379.837769 331.491913,382.391327 
	C335.384491,393.306274 338.984100,404.325745 342.847198,415.771210 
	C338.949829,415.668060 335.507050,417.859741 332.562225,412.773804 
	C331.598877,411.110016 322.599426,411.271088 321.832275,412.834167 
	C319.172302,418.253967 315.448944,415.359375 311.524384,416.039429 
	C315.401031,404.707214 319.093353,393.913727 322.885925,382.742004 
M328.390717,403.821716 
	C330.295593,401.695526 330.295593,401.695526 326.994354,394.881561 
	C325.918396,397.964081 324.997314,400.602875 323.949158,403.605835 
	C325.668579,403.712555 326.634857,403.772522 328.390717,403.821716 
z"/>
<path fill="#FFF9F9" opacity="1.000000" stroke="none" 
	d="
M50.419636,400.212341 
	C49.126183,401.817902 48.290009,403.421997 46.990746,405.914429 
	C51.730137,405.914429 55.148605,405.914429 59.087029,405.914429 
	C59.247238,409.395081 59.386963,412.430725 59.542419,415.808105 
	C53.068512,415.808105 46.992176,415.808105 40.498093,415.808105 
	C40.498093,402.866333 40.498093,389.833954 40.498093,376.389221 
	C46.557701,376.389221 52.738968,376.389221 59.120522,376.389221 
	C59.120522,379.409119 59.120522,382.336761 59.120522,385.738556 
	C55.513474,385.738556 52.100887,385.738556 48.330952,385.738556 
	C48.217293,387.747375 48.129166,389.304871 48.013542,391.348389 
	C51.094090,391.487152 53.846989,391.611176 56.975800,391.752106 
	C56.975800,394.423584 56.975800,396.976349 56.975800,400.210815 
	C55.052231,400.210815 52.964573,400.210815 50.419636,400.212341 
z"/>
<path fill="#FFF7F7" opacity="1.000000" stroke="none" 
	d="
M302.990723,375.625671 
	C305.708405,377.262878 308.054321,378.745514 310.713226,380.425964 
	C309.101288,383.316040 307.762360,385.716614 306.427094,388.110565 
	C299.155609,384.578583 296.301422,384.759277 293.336823,388.830017 
	C290.043274,393.352570 290.467987,400.675323 294.345306,404.517548 
	C298.384827,408.520508 302.145325,406.552612 305.613220,403.686279 
	C306.106567,403.971375 306.556274,404.071472 306.642395,404.305450 
	C307.607269,406.926483 309.779999,411.532898 309.234070,411.884064 
	C305.792145,414.098145 301.850281,415.853851 297.847687,416.735718 
	C295.992981,417.144348 293.379028,415.606079 291.537933,414.331329 
	C280.527313,406.707672 280.224365,386.013214 290.932556,377.962646 
	C294.402985,375.353546 298.241516,374.037872 302.990723,375.625671 
z"/>
<path fill="#FFF8F7" opacity="1.000000" stroke="none" 
	d="
M360.244995,406.324768 
	C361.974640,405.347382 363.353302,404.518127 365.811432,403.039551 
	C366.653717,406.503265 368.859589,410.277496 367.777557,412.225006 
	C365.509216,416.307739 360.778290,417.587311 355.981049,416.853424 
	C347.882446,415.614532 341.898132,406.620667 341.896362,395.880157 
	C341.894592,385.133331 347.819885,375.771942 356.147064,375.313934 
	C359.965179,375.103912 364.387207,377.343018 367.610504,379.723694 
	C368.662781,380.500885 366.790131,385.238190 366.077087,389.138550 
	C361.085754,385.705444 357.160156,383.351044 353.043945,387.607513 
	C349.869629,390.889893 348.894409,397.141602 351.182526,401.621338 
	C352.947113,405.076050 355.438202,407.649261 360.244995,406.324768 
z"/>
<path fill="#FFF7F7" opacity="1.000000" stroke="none" 
	d="
M109.257607,400.381165 
	C108.520264,393.666565 109.401108,387.677429 112.829010,382.253967 
	C116.729683,376.082428 123.788879,373.131317 129.441162,375.918945 
	C137.367157,379.828003 137.842896,380.720612 131.716431,388.033447 
	C125.468575,384.373444 122.570114,384.429901 119.548126,388.270569 
	C116.025528,392.747406 116.303177,400.506012 120.125854,404.414703 
	C123.360565,407.722137 126.060562,407.561066 132.686142,402.932129 
	C133.593491,406.386841 135.693344,409.840729 134.883560,412.359009 
	C133.657043,416.173157 126.023849,417.994476 121.612564,416.471100 
	C114.189095,413.907440 110.913437,407.998383 109.257607,400.381165 
z"/>
<path fill="#FFFBFB" opacity="1.000000" stroke="none" 
	d="
M471.056976,407.273560 
	C471.165192,410.362030 471.165192,412.988770 471.165192,415.866241 
	C464.705414,415.866241 458.638458,415.866241 452.268158,415.866241 
	C452.268158,402.733643 452.268158,389.689087 452.268158,376.308746 
	C458.345062,376.308746 464.406342,376.308746 470.815308,376.308746 
	C470.815308,379.259796 470.815308,382.296570 470.815308,385.769348 
	C467.286591,385.769348 463.868866,385.769348 460.180298,385.769348 
	C460.180298,387.756927 460.180298,389.330048 460.180298,391.368530 
	C462.943787,391.368530 465.696594,391.368530 468.793915,391.368530 
	C468.793915,394.389893 468.793915,396.964111 468.793915,400.042114 
	C466.192108,400.042114 463.465210,400.042114 460.222168,400.042114 
	C460.120178,402.194489 460.040009,403.886566 459.955597,405.668457 
	C463.861938,406.074768 467.405365,406.443329 471.056976,407.273560 
z"/>
<path fill="#FFF6F6" opacity="1.000000" stroke="none" 
	d="
M484.457642,375.393005 
	C485.664795,375.319153 486.704865,375.009796 487.283386,375.394531 
	C489.806610,377.072449 492.937164,378.525055 494.325531,380.935791 
	C495.035950,382.169312 492.540405,385.249207 491.371246,387.757568 
	C489.741394,386.673859 488.861359,385.660553 487.869446,385.535675 
	C486.579407,385.373199 485.200439,385.916565 483.859772,386.156189 
	C484.303680,387.374817 484.420776,388.941345 485.264679,389.734161 
	C486.688110,391.071320 488.632263,391.833740 490.251801,392.986298 
	C495.949554,397.041138 497.782013,403.862610 494.957123,410.224731 
	C492.864288,414.938049 487.557495,417.667084 482.691254,416.532349 
	C474.672180,414.662476 473.155090,410.091949 478.487457,403.853210 
	C480.337006,404.852356 482.091949,406.220551 484.066376,406.718353 
	C485.158417,406.993713 486.917694,406.088165 487.774994,405.159790 
	C488.156281,404.746918 487.371002,402.612305 486.557312,401.874481 
	C484.852966,400.329071 482.768585,399.206329 480.858612,397.883484 
	C476.218536,394.669800 474.960632,390.161926 475.708496,384.781708 
	C476.410034,379.734802 479.179749,376.681946 484.457642,375.393005 
z"/>
<path fill="#FFF6F6" opacity="1.000000" stroke="none" 
	d="
M14.590240,380.056335 
	C15.245772,378.404633 15.875111,376.166534 16.595724,376.136749 
	C23.175879,375.864746 29.771904,375.976929 36.573311,375.976929 
	C36.573311,379.356415 36.573311,382.271759 36.573311,385.578033 
	C34.486378,385.739349 32.558384,385.888397 30.005985,386.085724 
	C30.005985,395.818512 30.005985,405.663269 30.005985,415.772003 
	C26.978403,415.772003 24.566612,415.772003 21.686779,415.772003 
	C21.686779,405.966492 21.686779,396.230103 21.686779,386.233307 
	C19.313509,386.032745 17.376360,385.869049 14.884618,385.658447 
	C14.794415,383.984253 14.700398,382.239258 14.590240,380.056335 
z"/>
<path fill="#FFFAFA" opacity="1.000000" stroke="none" 
	d="
M71.852066,378.357483 
	C71.859322,387.644592 71.859322,396.463989 71.859322,405.908325 
	C75.642662,405.908325 79.182068,405.908325 82.945663,405.908325 
	C82.945663,409.479309 82.945663,412.428467 82.945663,415.725861 
	C76.812271,415.725861 70.590927,415.725861 64.081741,415.725861 
	C64.081741,402.602509 64.081741,389.539429 64.081741,375.104309 
	C66.987862,376.147034 69.416336,377.018402 71.852066,378.357483 
z"/>
<path fill="#FFF2F2" opacity="1.000000" stroke="none" 
	d="
M376.018066,416.128510 
	C374.481476,415.466766 372.460052,414.819336 372.449860,414.141724 
	C372.260773,401.542114 372.311127,388.938904 372.311127,376.154297 
	C375.181610,376.154297 377.471649,376.154297 380.496796,376.154297 
	C380.496796,381.301575 380.496582,386.386292 380.496826,391.471008 
	C380.497223,398.460968 380.323181,405.457245 380.574738,412.438171 
	C380.694641,415.765594 379.313873,416.539734 376.018066,416.128510 
z"/>
<path fill="#FFFBFB" opacity="1.000000" stroke="none" 
	d="
M279.002991,377.305695 
	C279.067535,390.376312 279.067535,402.973969 279.067535,415.820923 
	C276.262177,415.820923 273.870880,415.820923 271.239349,415.820923 
	C271.239349,402.584625 271.239349,389.537903 271.239349,375.701996 
	C273.989075,376.105835 276.463745,376.469299 279.002991,377.305695 
z"/>
<path fill="#FF0606" opacity="1.000000" stroke="none" 
	d="
M395.570190,387.563721 
	C400.475403,382.397949 406.647156,386.385986 408.303864,391.239807 
	C410.058929,396.381989 409.071167,402.963226 405.013763,405.174530 
	C402.842621,406.357819 399.158386,406.509979 396.932434,405.469147 
	C392.824707,403.548340 391.347321,396.845734 393.126038,391.700439 
	C393.600952,390.326569 394.563873,389.121429 395.570190,387.563721 
z"/>
<path fill="#FF0A0A" opacity="1.000000" stroke="none" 
	d="
M150.865341,406.455750 
	C144.589493,401.734283 143.256226,393.889679 147.482956,388.388153 
	C150.828156,384.034058 155.803024,383.974701 159.235001,388.247864 
	C162.235199,391.983429 162.668854,397.894043 160.190338,402.299469 
	C158.218948,405.803497 155.465622,407.809418 150.865341,406.455750 
z"/>
<path fill="#FF2424" opacity="1.000000" stroke="none" 
	d="
M327.995941,403.827087 
	C326.634857,403.772522 325.668579,403.712555 323.949158,403.605835 
	C324.997314,400.602875 325.918396,397.964081 326.994354,394.881561 
	C330.295593,401.695526 330.295593,401.695526 327.995941,403.827087 
z"/>
</svg>